# xmcd
#
# Track frame offsets:
#	150
#	15285
#	30230
#	43061
#	58195
#	77215
#	89919
#	105358
#	119700
#	132300
#	145905
#	159124
#	173435
#	186321
#
# Disc length: 2665 seconds
#
# Revision: 1
# Processed by: cddbd v1.5.2PL0 Copyright (c) Steve Scherf et al.
# Submitted via: audiograbber 1.83.01
#
DISCID=b30a670e
DTITLE=Jetsurfers - Five Years Down The Road Jetsurfers
DYEAR=1900
DGENRE=
TTITLE0=Jetville
TTITLE1=Cattle Town
TTITLE2=Fireworks
TTITLE3=Wake Up And Smell The Diesel
TTITLE4=Muddy
TTITLE5=Skeleton Horses
TTITLE6=Yesterdays Town
TTITLE7=Those Days
TTITLE8=Mama You Been On My Mind
TTITLE9=Stranded
TTITLE10=Stranded
TTITLE11=Hard Work
TTITLE12=Next On Kin
TTITLE13=Jetlagged In Jetland
EXTD=
EXTT0=
EXTT1=
EXTT2=
EXTT3=
EXTT4=
EXTT5=
EXTT6=
EXTT7=
EXTT8=
EXTT9=
EXTT10=
EXTT11=
EXTT12=
EXTT13=
PLAYORDER=
